PathFileType	4	(X/Y/Z)	 s01c0201.trc
DataRate	CameraRate	NumFrames	NumMarkers	Units	OrigDataRate	OrigDataStartFrame	OrigNumFrames
200	200	4	48	mm	200	251	2000
Frame#	Time	racr			lacr			c7			jug			rlel			rdr			llel			ldr			s2			lic			ric			lasi			rasi			rpsi			lpsi			rgt			lgt			rth1			rth2			rth3			rth4			rlfc			rsh1			rsh2			rsh3			rsh4			rlmal			rmmal			rcal			rtoe			rmt5			lth1			lth2			lth4			lth3			llfc			lsh1			lsh2			lsh3			lsh4			llmal			lmmal			lcal			ltoe			lmt5			SBIKE			LBIKE			RBIKE			
		X1	Y1	Z1	X2	Y2	Z2	X3	Y3	Z3	X4	Y4	Z4	X5	Y5	Z5	X6	Y6	Z6	X7	Y7	Z7	X8	Y8	Z8	X9	Y9	Z9	X10	Y10	Z10	X11	Y11	Z11	X12	Y12	Z12	X13	Y13	Z13	X14	Y14	Z14	X15	Y15	Z15	X16	Y16	Z16	X17	Y17	Z17	X18	Y18	Z18	X19	Y19	Z19	X20	Y20	Z20	X21	Y21	Z21	X22	Y22	Z22	X23	Y23	Z23	X24	Y24	Z24	X25	Y25	Z25	X26	Y26	Z26	X27	Y27	Z27	X28	Y28	Z28	X29	Y29	Z29	X30	Y30	Z30	X31	Y31	Z31	X32	Y32	Z32	X33	Y33	Z33	X34	Y34	Z34	X35	Y35	Z35	X36	Y36	Z36	X37	Y37	Z37	X38	Y38	Z38	X39	Y39	Z39	X40	Y40	Z40	X41	Y41	Z41	X42	Y42	Z42	X43	Y43	Z43	X44	Y44	Z44	X45	Y45	Z45	X46	Y46	Z46	X47	Y47	Z47	X48	Y48	Z48	
251	1.2550	514.310762	1285.442670	-144.537989	504.705789	1239.338774	-452.384284	472.416172	1333.013240	-294.503845	474.846604	1165.079734	-280.292497	505.278575	1046.270077	30.678403	693.463637	893.798759	-42.608800	495.544877	998.268473	-599.819435	674.110856	903.168048	-449.512001	-68.584286	1180.195460	-248.309364	110.891178	1158.282466	-424.751870	93.505150	1163.862424	-90.363210	105.217141	1110.618575	-393.244271	107.402200	1116.187932	-109.897737	-31.964415	1215.635639	-196.669624	-31.584439	1219.675390	-300.956528	21.760269	1055.338369	-55.694203	50.612353	1052.875646	-443.550765	119.610535	957.346831	-38.579228	180.744349	901.811616	-45.035816	242.284572	836.447304	-56.029717	218.174576	939.751143	-60.003328	282.356165	735.234231	-81.935860	197.504256	652.113393	-52.484780	145.648045	585.220953	-59.400928	84.178751	521.835087	-74.577853	178.844845	556.336868	-100.535737	-6.102590	429.108538	-98.522050	46.386518	425.377240	-173.047580	-54.939392	414.630933	-159.320405	180.242623	276.932227	-131.685614	70.192278	297.444097	-70.921834	163.002580	971.104290	-448.994221	222.004021	932.875759	-413.545857	240.832764	983.341544	-407.200552	298.429838	897.999957	-387.922751	381.131795	823.895098	-358.578138	339.148857	723.409035	-403.189395	322.881608	638.054067	-405.210392	303.284050	554.379084	-401.697441	372.970209	628.147573	-371.230597	270.745517	429.953519	-401.279968	295.187513	436.376148	-311.319528	220.221947	385.759167	-363.968483	498.801562	398.154986	-371.359432	397.021670	365.729556	-437.472164	-223.573674	893.229155	-249.301675	-12.134725	84.544225	-453.804702	-20.308642	80.856974	-53.840550	
252	1.2600	514.155507	1284.801491	-145.134052	504.424614	1238.520202	-452.827473	472.223801	1332.269346	-295.087978	474.342683	1164.270348	-280.779132	504.912676	1046.040935	30.759644	693.292241	893.837861	-42.709950	495.291203	997.515188	-600.143521	673.869133	903.043352	-449.560048	-69.139540	1180.480833	-248.483145	109.836706	1158.204083	-424.729913	92.778312	1164.266412	-90.506051	104.661193	1110.613142	-393.574275	106.807663	1116.527988	-110.107481	-32.426154	1215.986699	-196.926550	-31.999434	1219.904016	-301.130095	21.147161	1055.857964	-55.754706	49.782368	1052.734039	-443.689562	119.376781	958.228833	-38.364268	180.740288	903.003998	-44.832956	242.737464	838.040402	-56.126936	217.996657	941.179611	-59.743710	283.154699	737.097913	-81.658583	198.028806	654.231352	-52.309564	145.844301	587.559094	-59.304524	84.080336	524.473802	-74.537337	182.110913	560.374553	-98.887588	-6.376080	432.070054	-98.646399	46.096315	428.465359	-173.071723	-55.808233	418.023777	-159.233613	179.688996	279.848020	-131.758224	69.549932	300.436641	-70.942810	159.372113	969.667315	-447.065702	220.401037	931.567011	-413.911868	239.625281	981.961402	-407.616874	296.659877	896.186244	-388.239340	378.965262	822.067836	-359.055986	337.880962	720.910123	-403.766483	322.065732	635.509093	-405.645099	303.119388	551.612915	-401.980451	372.238522	625.857797	-371.486870	271.202850	427.041440	-401.416487	295.689632	433.794830	-311.502137	221.677476	382.108263	-362.389355	499.454033	395.084597	-371.279377	397.670233	362.755037	-437.512819	-223.592064	893.213989	-249.331462	-12.146689	84.517429	-453.825592	-20.294966	80.835106	-53.839037	
253	1.2650	513.996050	1284.132842	-145.796289	504.143445	1237.666890	-453.254374	472.040640	1331.519126	-295.689412	473.910747	1163.516159	-281.216495	504.529110	1045.919729	30.936022	693.125947	893.911790	-42.722906	495.016476	996.739555	-600.475659	673.621423	902.879410	-449.577072	-69.635711	1180.779440	-248.690088	109.043849	1158.199532	-424.844923	92.268751	1164.599758	-90.554816	104.107666	1110.616974	-393.927040	106.249800	1116.841137	-110.278531	-32.878653	1216.276912	-197.227880	-32.416815	1220.105093	-301.297085	20.519750	1056.389633	-55.793850	48.938754	1052.554916	-443.797531	119.176691	959.108803	-38.250915	180.812237	904.257703	-44.660417	243.152715	839.563516	-55.959255	217.908108	942.561914	-59.550587	283.947333	738.936210	-81.477244	198.613058	656.379599	-52.184572	146.106849	589.931795	-59.226193	84.043413	527.074914	-74.538209	182.279384	562.686963	-98.815481	-6.687664	435.192291	-98.614261	45.682395	431.372573	-173.156478	-56.280960	421.142850	-159.194022	179.071297	282.842194	-131.851032	69.026861	303.515120	-70.951134	155.420116	968.060653	-444.812884	218.814653	930.341861	-414.260607	238.430329	980.509165	-408.088531	294.945268	894.315487	-388.446069	376.832747	819.988484	-359.401035	336.594779	718.366870	-404.286561	321.395837	632.882451	-406.012564	302.854810	548.847493	-402.253468	371.692002	623.603692	-372.092030	271.614598	424.106204	-401.538712	296.162973	430.851540	-311.796667	221.976082	379.527364	-363.506800	500.100176	391.919993	-371.313504	398.281767	359.711857	-437.570665	-223.606053	893.211651	-249.316065	-12.152225	84.526860	-453.806181	-20.293629	80.840144	-53.836801	
254	1.2700	513.872354	1283.499388	-146.273930	503.801338	1236.827958	-453.691686	471.854374	1330.800510	-296.277989	473.377109	1162.673951	-281.729033	504.176010	1045.769670	31.103806	692.979235	894.001984	-42.736867	494.790103	995.914977	-600.770071	673.358222	902.702433	-449.626373	-70.199494	1181.040878	-248.909246	108.514892	1158.517759	-425.166040	91.693088	1164.960569	-90.671337	103.562746	1110.613422	-394.281927	105.702099	1117.083867	-110.455728	-33.311440	1216.544377	-197.449308	-32.834239	1220.274457	-301.453468	19.983840	1056.982128	-55.833727	48.139554	1052.436543	-443.927905	118.995294	960.004175	-38.137155	180.932741	905.419774	-44.445264	243.605784	841.058152	-55.782539	217.840378	943.976657	-59.363418	284.891677	740.876856	-81.220786	199.245705	658.541398	-52.028887	146.496315	592.350037	-59.113500	84.137966	529.888467	-74.495910	182.494413	564.982554	-98.760770	-6.959786	438.328497	-98.613595	45.270638	434.382770	-173.160870	-56.690977	424.374686	-159.187900	178.469508	285.819096	-131.925183	68.539987	306.685242	-70.887177	151.264263	966.327516	-442.340296	217.249209	928.873473	-414.595180	237.218545	979.000569	-408.579010	293.002114	892.371044	-388.757514	375.312395	816.709600	-359.303689	335.286588	715.875839	-404.848750	320.560892	630.081521	-406.340203	302.480983	545.984753	-402.579727	370.872644	621.261771	-372.409356	271.980729	421.150202	-401.646708	296.790781	428.255666	-312.059381	222.516517	376.678522	-363.584540	500.650855	388.679387	-371.207842	398.888615	356.608262	-437.537087	-223.627479	893.197524	-249.320204	-12.148862	84.504459	-453.812267	-20.303506	80.834194	-53.843236	
